squatMotion																																																																																																																																																																																																																				
version=1																																																																																																																																																																																																																				
nRows=6																																																																																																																																																																																																																				
nColumns=213																																																																																																																																																																																																																				
inDegrees=yes																																																																																																																																																																																																																				
endheader																																																																																																																																																																																																																				
time	platform_rx	platform_ry	platform_rz	platform_ty	pelvis_tilt	pelvis_list	pelvis_rotation	pelvis_tx	pelvis_ty	pelvis_tz	hip_flexion_r	hip_adduction_r	hip_rotation_r	knee_angle_r	knee_angle_r_beta	ankle_angle_r	subtalar_angle_r	mtp_angle_r	hip_flexion_l	hip_adduction_l	hip_rotation_l	knee_angle_l	knee_angle_l_beta	ankle_angle_l	subtalar_angle_l	mtp_angle_l	lumbar_extension	lumbar_bending	lumbar_rotation	arm_flex_r	arm_add_r	arm_rot_r	elbow_flex_r	pro_sup_r	wrist_flex_r	wrist_dev_r	arm_flex_l	arm_add_l	arm_rot_l	elbow_flex_l	pro_sup_l	wrist_flex_l	wrist_dev_l	platform_rx_u	platform_ry_u	platform_rz_u	platform_ty_u	pelvis_tilt_u	pelvis_list_u	pelvis_rotation_u	pelvis_tx_u	pelvis_ty_u	pelvis_tz_u	hip_flexion_r_u	hip_adduction_r_u	hip_rotation_r_u	knee_angle_r_u	knee_angle_r_beta_u	ankle_angle_r_u	subtalar_angle_r_u	mtp_angle_r_u	hip_flexion_l_u	hip_adduction_l_u	hip_rotation_l_u	knee_angle_l_u	knee_angle_l_beta_u	ankle_angle_l_u	subtalar_angle_l_u	mtp_angle_l_u	lumbar_extension_u	lumbar_bending_u	lumbar_rotation_u	arm_flex_r_u	arm_add_r_u	arm_rot_r_u	elbow_flex_r_u	pro_sup_r_u	wrist_flex_r_u	wrist_dev_r_u	arm_flex_l_u	arm_add_l_u	arm_rot_l_u	elbow_flex_l_u	pro_sup_l_u	wrist_flex_l_u	wrist_dev_l_u	addbrev_r.activation	addlong_r.activation	addlong_r.fiber_length	addmagDist_r.activation	addmagIsch_r.activation	addmagIsch_r.fiber_length	addmagMid_r.activation	addmagProx_r.activation	bflh_r.activation	bflh_r.fiber_length	bfsh_r.activation	edl_r.activation	edl_r.fiber_length	ehl_r.activation	ehl_r.fiber_length	fdl_r.activation	fdl_r.fiber_length	fhl_r.activation	fhl_r.fiber_length	gaslat_r.activation	gaslat_r.fiber_length	gasmed_r.activation	gasmed_r.fiber_length	glmax1_r.activation	glmax2_r.activation	glmax3_r.activation	glmed1_r.activation	glmed2_r.activation	glmed3_r.activation	glmin1_r.activation	glmin2_r.activation	glmin3_r.activation	glmin3_r.fiber_length	grac_r.activation	iliacus_r.activation	perbrev_r.activation	perbrev_r.fiber_length	perlong_r.activation	perlong_r.fiber_length	piri_r.activation	piri_r.fiber_length	psoas_r.activation	recfem_r.activation	recfem_r.fiber_length	sart_r.activation	semimem_r.activation	semimem_r.fiber_length	semiten_r.activation	semiten_r.fiber_length	soleus_r.activation	soleus_r.fiber_length	tfl_r.activation	tfl_r.fiber_length	tibant_r.activation	tibant_r.fiber_length	tibpost_r.activation	tibpost_r.fiber_length	vasint_r.activation	vasint_r.fiber_length	vaslat_r.activation	vaslat_r.fiber_length	vasmed_r.activation	vasmed_r.fiber_length	addbrev_l.activation	addlong_l.activation	addlong_l.fiber_length	addmagDist_l.activation	addmagIsch_l.activation	addmagIsch_l.fiber_length	addmagMid_l.activation	addmagProx_l.activation	bflh_l.activation	bflh_l.fiber_length	bfsh_l.activation	edl_l.activation	edl_l.fiber_length	ehl_l.activation	ehl_l.fiber_length	fdl_l.activation	fdl_l.fiber_length	fhl_l.activation	fhl_l.fiber_length	gaslat_l.activation	gaslat_l.fiber_length	gasmed_l.activation	gasmed_l.fiber_length	glmax1_l.activation	glmax2_l.activation	glmax3_l.activation	glmed1_l.activation	glmed2_l.activation	glmed3_l.activation	glmin1_l.activation	glmin2_l.activation	glmin3_l.activation	glmin3_l.fiber_length	grac_l.activation	iliacus_l.activation	perbrev_l.activation	perbrev_l.fiber_length	perlong_l.activation	perlong_l.fiber_length	piri_l.activation	piri_l.fiber_length	psoas_l.activation	recfem_l.activation	recfem_l.fiber_length	sart_l.activation	semimem_l.activation	semimem_l.fiber_length	semiten_l.activation	semiten_l.fiber_length	soleus_l.activation	soleus_l.fiber_length	tfl_l.activation	tfl_l.fiber_length	tibant_l.activation	tibant_l.fiber_length	tibpost_l.activation	tibpost_l.fiber_length	vasint_l.activation	vasint_l.fiber_length	vaslat_l.activation	vaslat_l.fiber_length	vasmed_l.activation	vasmed_l.fiber_length
0.53	20	0	0	0.25	-27.39099864	0	0	0.012	0.71099999	0	78.49799758	-18.06299989	-9.99995729	77.08800157	77.08800157	26.11199289	0.00000035	0	78.49799871	-18.06299998	-9.99990925	77.08800177	77.08800177	26.1119928	0	0	0	0	0	77.9999821	-0.00002041	89.84879954	0.12674893	0.12671656	0	0	77.99998187	-0.00001821	89.84883867	0.12674893	0.12671656	0	0	0	0	0	0	0	0	0	0	0	0	0	0	0	0	0	0	0	0	0	0	0	0	0	0	0	0	0	0	0	0	0	0	0	0	0	0	0	0	0	0	0	0	0	0.01	0.01	0.09721828	0.01	0.01	0.2085749	0.01	0.01	0.01	0.12204181	0.01	0.01	0.05304081	0.01	0.06065472	0.01	0.04750586	0.01	0.05595308	0.01	0.05965654	0.01	0.04965717	0.01	0.01	0.01	0.01	0.01	0.01	0.01	0.01	0.01	0.04643851	0.01	0.01	0.01	0.05061166	0.01	0.05719885	0.01	0.03142194	0.01	0.01	0.05513332	0.01	0.01	0.0811145	0.01	0.23312005	0.01	0.06031041	0.01	0.0333431	0.01	0.0469353	0.01	0.04186537	0.01	0.12969936	0.01	0.12681426	0.01	0.12468944	0.01	0.01	0.09721828	0.01	0.01	0.2085749	0.01	0.01	0.01	0.12204182	0.01	0.01	0.05304081	0.01	0.06065472	0.01	0.04750586	0.01	0.05595308	0.01	0.05965654	0.01	0.04965717	0.01	0.01	0.01	0.01	0.01	0.01	0.01	0.01	0.01	0.04643848	0.01	0.01	0.01	0.05061166	0.01	0.05719885	0.01	0.03142193	0.01	0.01	0.05513332	0.01	0.01	0.0811145	0.01	0.23312005	0.01	0.06031041	0.01	0.03334306	0.01	0.0469353	0.01	0.04186537	0.01	0.12969936	0.01	0.12681426	0.01	0.12468944
0.57	20	0	0	0.25	-25.9679991	0	0.014	0.014	0.70299998	0	78.49799209	-18.06299334	-9.99999147	79.56593324	79.56593324	26.56696802	0.0000001	0	78.49798481	-18.06299	-9.99989641	79.56593328	79.56593328	26.56696812	0	0	0	0	0	88.99939076	-0.00002313	89.84113046	0.13425862	0.13422346	0	0	88.99939373	-0.00002093	89.84116494	0.13425862	0.13422346	0	0	0	0	0	0	0	0	0	0	0	0	0	0	0	0	0	0	0	0	0	0	0	0	0	0	0	0	0	0	0	0	0	0	0	0	0	0	0	0	0	0	0	0	0	0.01	0.01	0.09721827	0.01	0.01	0.2085749	0.01	0.01	0.01	0.12076951	0.01	0.01	0.05276538	0.01	0.06034995	0.01	0.04752663	0.01	0.05601014	0.01	0.05883397	0.01	0.04861543	0.01	0.01	0.01	0.01	0.01	0.01	0.01	0.01	0.01	0.04643853	0.01	0.01	0.01	0.05063902	0.01	0.05724399	0.01	0.03142195	0.01	0.01	0.05640364	0.01	0.01	0.07955741	0.01	0.23104509	0.01	0.06046873	0.01	0.03358992	0.01	0.04660788	0.01	0.04189674	0.01	0.13071364	0.01	0.12769876	0.01	0.12557684	0.01	0.01	0.09721826	0.01	0.01	0.20857488	0.01	0.01	0.01	0.12076951	0.01	0.01	0.05276538	0.01	0.06034995	0.01	0.04752663	0.01	0.05601014	0.01	0.05883397	0.01	0.04861543	0.01	0.01	0.01	0.01	0.01	0.01	0.01	0.01	0.01	0.04643848	0.01	0.01	0.01	0.05063902	0.01	0.05724399	0.01	0.03142192	0.01	0.01	0.05640364	0.01	0.01	0.0795574	0.01	0.23104508	0.01	0.06046873	0.01	0.03358985	0.01	0.04660788	0.01	0.04189674	0.01	0.13071364	0.01	0.12769876	0.01	0.12557684
0.6	20	0	0	0.25	-25.25699821	0	0	-0.023	0.64199999	0	87.98398547	-18.06298605	-4.90099923	88.99996624	88.99996624	26.49997709	0.00000015	0	87.98398564	-18.06298271	-4.90099924	88.99996772	88.99996772	26.49997727	0	0	0	0	0	88.99870276	-0.00002503	89.84109293	0.13938172	0.13934433	0	0	88.99870573	-0.00002284	89.83579258	0.13938172	0.13934433	0	0	0	0	0	0	0	0	0	0	0	0	0	0	0	0	0	0	0	0	0	0	0	0	0	0	0	0	0	0	0	0	0	0	0	0	0	0	0	0	0	0	0	0	0	0.01	0.01	0.09805419	0.01	0.01	0.21515494	0.01	0.01	0.01	0.12217609	0.01	0.01	0.05280588	0.01	0.06039478	0.01	0.0475236	0.01	0.05600178	0.01	0.05471706	0.01	0.04359194	0.01	0.01	0.01	0.01	0.01	0.01	0.01	0.01	0.01	0.04530277	0.01	0.01	0.01	0.05063501	0.01	0.05723737	0.01	0.03213872	0.01	0.01	0.05419592	0.01	0.01	0.079237	0.01	0.23098473	0.01	0.06044547	0.01	0.02401565	0.01	0.04665603	0.01	0.04189216	0.01	0.13415006	0.01	0.13069278	0.01	0.12856313	0.01	0.01	0.09805418	0.01	0.01	0.21515494	0.01	0.01	0.01	0.12217609	0.01	0.01	0.05280588	0.01	0.06039478	0.01	0.0475236	0.01	0.05600178	0.01	0.05471706	0.01	0.04359194	0.01	0.01	0.01	0.01	0.01	0.01	0.01	0.01	0.01	0.04530277	0.01	0.01	0.01	0.05063501	0.01	0.05723737	0.01	0.03213872	0.01	0.01	0.05419593	0.01	0.01	0.07923699	0.01	0.23098473	0.01	0.06044547	0.01	0.02401565	0.01	0.04665603	0.01	0.04189216	0.01	0.13415007	0.01	0.13069278	0.01	0.12856313
0.63	20	0	0	0.25	-26.67999897	0	0	-0.036	0.617	0	92.99998931	-18.06298207	-3.63599997	92.9999793	92.9999793	27.99998646	0.00000014	0	92.99999032	-18.06297873	-3.63599995	92.99997901	92.99997901	27.99998583	0	0	0	0	0	89.98888749	-0.00002608	89.84109293	0.14207604	0.14203779	0	0	89.99038739	-0.00002389	89.83303924	0.14207604	0.14203779	0	0	0	0	0	0	0	0	0	0	0	0	0	0	0	0	0	0	0	0	0	0	0	0	0	0	0	0	0	0	0	0	0	0	0	0	0	0	0	0	0	0	0	0	0	0.01	0.01	0.09909457	0.01	0.01	0.21847203	0.01	0.01	0.01	0.12306214	0.01	0.01	0.05190346	0.01	0.05939429	0.01	0.0475884	0.01	0.05618553	0.01	0.05398843	0.01	0.04241102	0.01	0.01	0.01	0.01	0.01	0.01	0.01	0.01	0.01	0.04534204	0.01	0.01	0.01	0.0507231	0.01	0.05738398	0.01	0.03271112	0.01	0.01	0.05259359	0.01	0.01	0.0795243	0.01	0.23157811	0.01	0.06096158	0.01	0.02401565	0.01	0.04558281	0.01	0.04199204	0.01	0.13539303	0.01	0.13186436	0.01	0.12962004	0.01	0.01	0.09909456	0.01	0.01	0.21847203	0.01	0.01	0.01	0.12306215	0.01	0.01	0.05190346	0.01	0.05939429	0.01	0.0475884	0.01	0.05618553	0.01	0.05398843	0.01	0.04241102	0.01	0.01	0.01	0.01	0.01	0.01	0.01	0.01	0.01	0.04534204	0.01	0.01	0.01	0.0507231	0.01	0.05738398	0.01	0.03271112	0.01	0.01	0.05259359	0.01	0.01	0.0795243	0.01	0.23157811	0.01	0.06096158	0.01	0.02401565	0.01	0.04558281	0.01	0.04199204	0.01	0.13539303	0.01	0.13186436	0.01	0.12962004
0.67	20	0	0	0.25	-26.67999273	0	0	-0.045	0.569	0	99.99996872	-18.06297358	-1.107	101.5019994	101.5019994	28.99998934	0	0	99.99996672	-18.06297024	-1.107	101.5020134	101.5020134	28.99996813	0	0	0	0	0	89.95202855	-0.00002853	89.83674098	0.14692602	0.1468871	0	0	89.95210616	-0.00002634	89.82889297	0.14692602	0.1468871	0	0	0	0	0	0	0	0	0	0	0	0	0	0	0	0	0	0	0	0	0	0	0	0	0	0	0	0	0	0	0	0	0	0	0	0	0	0	0	0	0	0	0	0	0	0.01	0.01	0.10110565	0.01	0.01	0.22264926	0.01	0.01	0.01	0.12274102	0.01	0.01	0.05130779	0.01	0.05873186	0.01	0.04762824	0.01	0.05630402	0.01	0.05141832	0.01	0.03872196	0.01	0.01	0.01	0.01	0.01	0.01	0.01	0.01	0.01	0.04474444	0.01	0.01	0.01	0.05077991	0.01	0.05747969	0.01	0.03309946	0.01	0.01	0.05141807	0.01	0.01	0.07817864	0.01	0.2301023	0.01	0.06129983	0.01	0.02401565	0.01	0.04487335	0.01	0.04205537	0.01	0.13779929	0.01	0.1342694	0.01	0.13172162	0.01	0.01	0.10110565	0.01	0.01	0.22264926	0.01	0.01	0.01	0.12274102	0.01	0.01	0.0513078	0.01	0.05873187	0.01	0.04762824	0.01	0.05630401	0.01	0.0514183	0.01	0.03872195	0.01	0.01	0.01	0.01	0.01	0.01	0.01	0.01	0.01	0.04474444	0.01	0.01	0.01	0.05077991	0.01	0.05747968	0.01	0.03309946	0.01	0.01	0.05141807	0.01	0.01	0.07817863	0.01	0.23010229	0.01	0.06129982	0.01	0.02401565	0.01	0.04487337	0.01	0.04205537	0.01	0.13779929	0.01	0.13426941	0.01	0.13172162
0.7	20	0	0	0.25	-25.25699946	0	0	-0.04	0.56	0	99.99995876	-18.06297109	-1.10699967	104.0000284	104.0000284	29.99999013	0	0	99.99995675	-18.06296775	-1.10699967	104.0000285	104.0000285	29.99999067	0	0	0	0	0	89.94770045	-0.00002924	89.83546744	0.14834021	0.14830058	0	0	89.94777042	-0.00002705	89.82767787	0.14834021	0.14830058	0	0	0	0	0	0	0	0	0	0	0	0	0	0	0	0	0	0	0	0	0	0	0	0	0	0	0	0	0	0	0	0	0	0	0	0	0	0	0	0	0	0	0	0	0	0.01	0.01	0.10110565	0.01	0.01	0.22264925	0.01	0.01	0.01	0.12173372	0.01	0.01	0.05071771	0.01	0.05807374	0.01	0.04766537	0.01	0.05641926	0.01	0.05115769	0.01	0.03809597	0.01	0.01	0.01	0.01	0.01	0.01	0.01	0.01	0.01	0.04474444	0.01	0.01	0.01	0.05083518	0.01	0.05757376	0.01	0.03309946	0.01	0.01	0.05222438	0.01	0.01	0.07696508	0.01	0.22848382	0.01	0.06163275	0.01	0.02401565	0.01	0.04416906	0.01	0.04211608	0.01	0.13852359	0.01	0.13498778	0.01	0.1323584	0.01	0.01	0.10110564	0.01	0.01	0.22264925	0.01	0.01	0.01	0.12173372	0.01	0.01	0.05071771	0.01	0.05807374	0.01	0.04766537	0.01	0.05641926	0.01	0.05115769	0.01	0.03809597	0.01	0.01	0.01	0.01	0.01	0.01	0.01	0.01	0.01	0.04474444	0.01	0.01	0.01	0.05083518	0.01	0.05757376	0.01	0.03309946	0.01	0.01	0.05222438	0.01	0.01	0.07696508	0.01	0.22848382	0.01	0.06163275	0.01	0.02401565	0.01	0.04416906	0.01	0.04211608	0.01	0.13852359	0.01	0.13498778	0.01	0.1323584
